
nColumns=19
nRows=27
DataType=double
version=3
OpenSimVersion=4.4-2022-10-11-798caa840
endheader
time	ground_force_calcn_r_vx	ground_force_calcn_r_vy	ground_force_calcn_r_vz	ground_force_calcn_r_px	ground_force_calcn_r_py	ground_force_calcn_r_pz	ground_force_calcn_r_mx	ground_force_calcn_r_my	ground_force_calcn_r_mz	ground_force_calcn_l_vx	ground_force_calcn_l_vy	ground_force_calcn_l_vz	ground_force_calcn_l_px	ground_force_calcn_l_py	ground_force_calcn_l_pz	ground_force_calcn_l_mx	ground_force_calcn_l_my	ground_force_calcn_l_mz
3.075	-13.9178	497.328	-26.8228	1.32844	0	-0.413654	-0.0255048	0.911367	-0.0491536	-4.89692	1.49719	0.0762299	1.53706	0	-0.540316	2.65804e-06	-8.12674e-07	-4.13775e-08
3.08	-12.9828	498.399	-26.9483	1.33084	0	-0.413715	-0.0250197	0.960487	-0.0519333	-3.91195	1.19916	0.0713005	1.5607	0	-0.54081	3.46284e-06	-1.06149e-06	-6.31149e-08
3.085	-11.9183	500.652	-26.9041	1.33333	0	-0.413806	-0.0233056	0.978998	-0.0526095	-2.71024	0.833632	0.0569945	1.58451	0	-0.541484	3.92324e-06	-1.20673e-06	-8.25031e-08
3.09	-10.7162	504.094	-26.7132	1.33589	0	-0.413921	-0.0205993	0.968993	-0.0513493	-1.54199	0.476281	0.0366251	1.60843	0	-0.542451	3.8006e-06	-1.17391e-06	-9.027159999999999e-08
3.095	-9.408329999999999	508.659	-26.463	1.33848	0	-0.414057	-0.0174069	0.941101	-0.0489608	-0.65566	0.20354	0.0171801	1.63218	0	-0.544059	3.09135e-06	-9.59664e-07	-8.100189999999999e-08
3.1	-8.06137	514.173	-26.1538	1.34108	0	-0.414215	-0.0141255	0.900961	-0.0458281	-0.158083	0.0493778	0.00445772	1.65379	0	-0.548475	2.0133e-06	-6.2886e-07	-5.67721e-08
3.105	-6.63468	520.4349999999999	-25.7904	1.34368	0	-0.414391	-0.0108575	0.851677	-0.0422053	-0.009807110000000001	0.00309539	0.000262078	1.63421	0	-0.592554	1.92117e-07	-6.063730000000001e-08	-5.13398e-09
3.11	-5.13972	527.273	-25.3961	1.34627	0	-0.414583	-0.00775745	0.795821	-0.0383307	-0.00617225	0.0019605	0.000177726	1.66526	0	-0.573589	2.47017e-07	-7.84602e-08	-7.11266e-09
3.115	-3.557	534.534	-24.9839	1.34885	0	-0.414787	-0.00487143	0.732062	-0.0342162	-0.00226326	0.000724994	6.661550000000001e-05	1.68206	0	-0.566908	1.09503e-07	-3.50773e-08	-3.22305e-09
3.12	-1.86577	542.128	-24.6162	1.35142	0	-0.414994	-0.00227934	0.6622980000000001	-0.0300727	-0.0007619839999999999	0.000246873	2.23824e-05	1.69144	0	-0.592965	4.57676e-08	-1.48281e-08	-1.34437e-09
3.125	-0.0448042	549.981	-24.3732	1.35396	0	-0.415196	-4.82136e-05	0.591832	-0.0262278	-0.00026141	8.58833e-05	7.12798e-06	1.6798	0	-0.63403	5.02105e-09	-1.64961e-09	-1.36911e-10
3.13	1.9472	558.038	-24.3074	1.35646	0	-0.415387	0.00181999	0.521582	-0.0227194	-0.000229877	7.64073e-05	5.38874e-06	1.65495	0	-0.6142	1.42629e-08	-4.74077e-09	-3.3435e-10
3.135	4.11897	566.2859999999999	-24.4629	1.35891	0	-0.415563	0.00330976	0.455034	-0.0196569	-0.000500268	0.000168167	9.367150000000001e-06	1.62337	0	-0.591824	1.97563e-08	-6.64115e-09	-3.69922e-10
3.14	6.47224	574.746	-24.8442	1.3613	0	-0.415723	0.00444163	0.394424	-0.0170495	-0.00171352	0.000583285	2.74333e-05	1.62138	0	-0.582548	3.01354e-08	-1.02581e-08	-4.82465e-10
3.145	9.03227	583.378	-25.4382	1.36361	0	-0.415867	0.00527408	0.340643	-0.0148538	-0.00551173	0.00190381	7.584930000000001e-05	1.63118	0	-0.579561	3.23285e-08	-1.11666e-08	-4.44886e-10
3.15	11.8433	592.143	-26.2195	1.36582	0	-0.415996	0.00587845	0.293912	-0.0130141	-0.014481	0.0050865	0.000164509	1.64536	0	-0.578736	2.51317e-08	-8.827619999999999e-09	-2.85506e-10
3.155	14.8939	601.102	-27.1837	1.36792	0	-0.416116	0.00628613	0.253701	-0.0114731	-0.0302413	0.0108258	0.000259774	1.66092	0	-0.578487	1.49323e-08	-5.34548e-09	-1.28269e-10
3.16	18.1318	610.353	-28.3129	1.36991	0	-0.416234	0.00662192	0.222907	-0.0103401	-0.0507028	0.018539	0.00027465	1.67689	0	-0.578355	6.91834e-09	-2.52962e-09	-3.74757e-11
3.165	21.6707	619.931	-29.5503	1.37178	0	-0.416355	0.00697181	0.199442	-0.009506819999999999	-0.0698135	0.0261308	0.000128662	1.69291	0	-0.578219	2.52172e-09	-9.43865e-10	-4.64738e-12
3.17	25.6129	629.7910000000001	-30.879	1.37354	0	-0.416477	0.00741949	0.182437	-0.00894497	-0.0811645	0.0311714	-0.000171384	1.70881	0	-0.57804	7.22444e-10	-2.77456e-10	1.52549e-12
3.175	29.7521	639.684	-32.2065	1.3752	0	-0.416599	0.008120479999999999	0.174594	-0.00879039	-0.08219650000000001	0.0324711	-0.000528214	1.72442	0	-0.577806	1.59993e-10	-6.320419999999999e-11	1.02815e-12
3.18	33.8654	649.399	-33.3985	1.3768	0	-0.416724	0.009286040000000001	0.178068	-0.009157999999999999	-0.07504669999999999	0.0305724	-0.00082994	1.73963	0	-0.577512	3.11556e-11	-1.26921e-11	3.44549e-13
3.185	37.9566	659.144	-34.3966	1.37838	0	-0.416868	0.011621	0.201807	-0.010531	-0.06404890000000001	0.0269767	-0.00102292	1.75429	0	-0.5771579999999999	1.03777e-11	-4.37098e-12	1.65741e-13
3.19	41.9128	668.95	-35.0333	1.37998	0	-0.417059	0.0154945	0.247301	-0.0129513	-0.0529905	0.0231371	-0.00111755	1.76831	0	-0.576747	6.39963e-12	-2.79426e-12	1.34966e-13
3.195	45.7668	678.7859999999999	-35.2903	1.38162	0	-0.417325	0.0209195	0.310265	-0.0161308	-0.0439411	0.0199437	-0.0011594	1.78158	0	-0.576285	3.52258e-12	-1.5988e-12	9.294400000000001e-14
3.2	49.5577	688.62	-35.1313	1.38331	0	-0.417694	0.0276971	0.38486	-0.0196344	-0.0375543	0.0177673	-0.00119681	1.79401	0	-0.575778	1.04323e-12	-4.93563e-13	3.32463e-14
3.205	53.2729	698.2619999999999	-34.5899	1.38503	0	-0.418183	0.0354704	0.464921	-0.0230308	-0.0337898	0.0167111	-0.00127163	1.80553	0	-0.575233	-7.43738e-13	3.67825e-13	-2.79894e-14
